<?xml version="1.0" encoding="UTF-8" standalone="no"?>
<!-- Created with Inkscape (http://www.inkscape.org/) -->

<svg
   version="1.1"
   id="svg192"
   width="216.75023"
   height="84.715904"
   viewBox="0 0 216.75023 84.715905"
   sodipodi:docname="rezeptives_feld_tasten_primaer.svg"
   inkscape:version="1.2.1 (9c6d41e410, 2022-07-14, custom)"
   inkscape:export-filename="rezeptives_feld_tasten_primaer.png"
   inkscape:export-xdpi="96"
   inkscape:export-ydpi="96"
   xmlns:inkscape="http://www.inkscape.org/namespaces/inkscape"
   xmlns:sodipodi="http://sodipodi.sourceforge.net/DTD/sodipodi-0.dtd"
   xmlns:xlink="http://www.w3.org/1999/xlink"
   xmlns="http://www.w3.org/2000/svg"
   xmlns:svg="http://www.w3.org/2000/svg">
  <defs
     id="defs196">
    <inkscape:path-effect
       effect="bspline"
       id="path-effect12695"
       is_visible="true"
       lpeversion="1"
       weight="33.333333"
       steps="2"
       helper_size="0"
       apply_no_weight="true"
       apply_with_weight="true"
       only_selected="false" />
    <inkscape:path-effect
       effect="bspline"
       id="path-effect12689"
       is_visible="true"
       lpeversion="1"
       weight="33.333333"
       steps="2"
       helper_size="0"
       apply_no_weight="true"
       apply_with_weight="true"
       only_selected="false" />
    <inkscape:path-effect
       effect="bspline"
       id="path-effect12683"
       is_visible="true"
       lpeversion="1"
       weight="33.333333"
       steps="2"
       helper_size="0"
       apply_no_weight="true"
       apply_with_weight="true"
       only_selected="false" />
    <linearGradient
       id="linearGradient12503"
       inkscape:swatch="solid">
      <stop
         style="stop-color:#000000;stop-opacity:1;"
         offset="0"
         id="stop12501" />
    </linearGradient>
    <inkscape:path-effect
       effect="bspline"
       id="path-effect1256"
       is_visible="true"
       lpeversion="1"
       weight="33.333333"
       steps="2"
       helper_size="0"
       apply_no_weight="true"
       apply_with_weight="true"
       only_selected="false" />
    <inkscape:path-effect
       effect="bspline"
       id="path-effect1467"
       is_visible="true"
       lpeversion="1"
       weight="33.333333"
       steps="2"
       helper_size="0"
       apply_no_weight="true"
       apply_with_weight="true"
       only_selected="false" />
    <inkscape:path-effect
       effect="bspline"
       id="path-effect907"
       is_visible="true"
       lpeversion="1"
       weight="33.333333"
       steps="2"
       helper_size="0"
       apply_no_weight="true"
       apply_with_weight="true"
       only_selected="false" />
    <inkscape:path-effect
       effect="bspline"
       id="path-effect901"
       is_visible="true"
       lpeversion="1"
       weight="33.333333"
       steps="2"
       helper_size="0"
       apply_no_weight="true"
       apply_with_weight="true"
       only_selected="false" />
    <inkscape:path-effect
       effect="bspline"
       id="path-effect841"
       is_visible="true"
       lpeversion="1"
       weight="33.333333"
       steps="2"
       helper_size="0"
       apply_no_weight="true"
       apply_with_weight="true"
       only_selected="false" />
    <inkscape:path-effect
       effect="bspline"
       id="path-effect835"
       is_visible="true"
       lpeversion="1"
       weight="33.333333"
       steps="2"
       helper_size="0"
       apply_no_weight="true"
       apply_with_weight="true"
       only_selected="false" />
    <inkscape:path-effect
       effect="bspline"
       id="path-effect733"
       is_visible="true"
       lpeversion="1"
       weight="33.333333"
       steps="2"
       helper_size="0"
       apply_no_weight="true"
       apply_with_weight="true"
       only_selected="false" />
    <inkscape:path-effect
       effect="bspline"
       id="path-effect36839"
       is_visible="true"
       lpeversion="1"
       weight="33.333333"
       steps="2"
       helper_size="0"
       apply_no_weight="true"
       apply_with_weight="true"
       only_selected="false" />
    <linearGradient
       x1="367.14285"
       y1="706.64789"
       x2="592.86169"
       y2="706.64789"
       id="linearGradient4056"
       xlink:href="#linearGradient3716"
       gradientUnits="userSpaceOnUse"
       gradientTransform="matrix(1.0217439,0,0,1.0217439,-795.00213,-184.34154)" />
    <linearGradient
       id="linearGradient3716">
      <stop
         id="stop3718"
         style="stop-color:#ffa87e;stop-opacity:1"
         offset="0" />
      <stop
         id="stop3720"
         style="stop-color:#ffffff;stop-opacity:0"
         offset="1" />
    </linearGradient>
  </defs>
  <sodipodi:namedview
     id="namedview194"
     pagecolor="#ffffff"
     bordercolor="#000000"
     borderopacity="0.25"
     inkscape:showpageshadow="2"
     inkscape:pageopacity="0.0"
     inkscape:pagecheckerboard="0"
     inkscape:deskcolor="#d1d1d1"
     showgrid="false"
     inkscape:zoom="4.1359985"
     inkscape:cx="106.74569"
     inkscape:cy="40.377191"
     inkscape:window-width="1920"
     inkscape:window-height="1131"
     inkscape:window-x="0"
     inkscape:window-y="32"
     inkscape:window-maximized="1"
     inkscape:current-layer="g198"
     showguides="false" />
  <g
     inkscape:groupmode="layer"
     inkscape:label="Image"
     id="g198"
     transform="translate(-135.69899,-264.89319)">
    <g
       id="g35067"
       transform="translate(-122.84231,28.59491)" />
    <path
       style="fill:#8c644d;fill-opacity:1;stroke:#000000;stroke-width:0.989031;stroke-opacity:1"
       d="m 190.00243,348.36365 c 3.44728,-4.25615 6.89478,-8.51258 8.82721,-13.94176 1.93242,-5.42918 2.34953,-12.03085 3.01372,-17.01067 0.66418,-4.97982 1.57546,-8.33756 2.31961,-11.32289 0.74416,-2.98533 1.32114,-5.59807 1.72306,-9.11249 0.40191,-3.51443 0.62869,-7.93028 0.26468,-10.56074 -0.36402,-2.63046 -1.31879,-3.47512 -2.28016,-3.48815 -0.96136,-0.013 -1.92899,0.80531 -2.67441,2.46356 -0.74543,1.65825 -1.26882,4.15624 -1.77351,6.43932 -0.50468,2.28307 -0.99063,4.35112 -1.84544,6.95225 -0.85481,2.60114 -2.07837,5.73519 -3.0525,6.59821 -0.97414,0.86301 -1.69897,-0.54481 -2.12432,-4.8151 -0.42536,-4.27028 -0.55117,-11.40288 -0.63597,-16.53618 -0.0848,-5.13329 -0.1286,-8.26703 -0.60317,-10.73756 -0.47457,-2.47052 -1.37992,-4.27754 -2.41392,-5.09862 -1.034,-0.82108 -2.19623,-0.65612 -3.04382,-0.31953 -0.84758,0.33659 -1.38052,0.84459 -1.47313,3.02177 -0.0926,2.17718 0.25479,6.02339 0.1521,10.10369 -0.1027,4.0803 -0.65543,8.39436 -0.91816,11.96608 -0.26273,3.57172 -0.2355,6.40093 -0.79205,7.54052 -0.55656,1.13959 -1.69673,0.58985 -2.43517,-2.03103 -0.73844,-2.62088 -1.07524,-7.313 -1.40624,-11.58085 -0.331,-4.26785 -0.65618,-8.11119 -0.91161,-11.53049 -0.25543,-3.41931 -0.4411,-6.41439 -1.36169,-8.12072 -0.9206,-1.70633 -2.57587,-2.12355 -3.87115,-1.71342 -1.29528,0.41013 -2.23043,1.64726 -2.64279,3.24379 -0.41237,1.59653 -0.30218,3.5524 -0.0818,6.54141 0.2204,2.989 0.55097,7.01094 0.78512,11.30831 0.23416,4.29738 0.3719,8.86991 0.17076,11.40221 -0.20114,2.5323 -0.74086,3.02424 -1.98348,0.28563 -1.24263,-2.73861 -3.1884,-8.70745 -4.18295,-13.53465 -0.99454,-4.82719 -1.03776,-8.51257 -1.60723,-10.97246 -0.56947,-2.45989 -1.66517,-3.69393 -2.94049,-3.61307 -1.27533,0.0809 -2.72993,1.47637 -3.48467,3.69952 -0.75474,2.22316 -0.80983,5.2738 -0.64389,8.37366 0.16594,3.09985 0.55287,6.24875 1.28884,10.42669 0.73598,4.17793 1.82094,9.38466 2.58536,13.47414 0.76442,4.08949 1.20828,7.0615 0.97417,10.26826 -0.23412,3.20676 -1.14605,6.648 -2.87884,6.85598 -1.73278,0.20798 -4.2864,-2.81697 -6.55046,-5.16151 -2.26406,-2.34454 -4.23839,-4.0085 -6.66588,-5.11635 -2.42748,-1.10785 -5.30775,-1.65949 -6.95194,-1.45154 -1.64419,0.20796 -2.0523,1.17515 -1.35429,2.67887 0.698,1.50373 2.5019,3.54419 4.2845,5.78897 1.7826,2.24478 3.54377,4.6937 6.7194,8.42733 3.17563,3.73363 7.76555,8.75178 10.88713,12.44459 3.12158,3.69282 4.77465,6.06009 6.42771,8.42734"
       id="path1254"
       inkscape:path-effect="#path-effect1256"
       inkscape:original-d="m 190.00243,348.36365 c 3.44725,-4.25617 6.89476,-8.5126 10.34252,-12.7693 0.41687,-6.60166 0.83398,-13.20333 1.25136,-19.80539 0.91105,-3.35761 1.82233,-6.71535 2.73389,-10.07343 0.57674,-2.61257 1.15372,-5.22531 1.73097,-7.83836 0.22653,-4.41577 0.4533,-8.83162 0.68035,-13.24782 -0.95508,-0.84443 -1.90985,-1.68909 -2.86438,-2.53403 -0.96793,0.81863 -1.93556,1.63696 -2.90295,2.45505 -0.52367,2.49835 -1.04707,4.99634 -1.57021,7.49411 -0.48621,2.06838 -0.97218,4.13642 -1.45786,6.20423 -1.22388,3.13445 -2.44743,6.26851 -3.67076,9.40237 -0.72512,-1.40762 -1.44995,-2.81544 -2.17454,-4.22356 -0.12608,-7.13261 -0.25187,-14.26521 -0.37743,-21.3982 -0.0441,-3.1336 -0.0878,-6.26734 -0.13139,-9.4014 -0.90565,-1.80683 -1.81101,-3.61385 -2.71611,-5.42117 -1.16255,0.16522 -2.32478,0.33018 -3.48677,0.49487 -0.5332,0.50828 -1.06614,1.01628 -1.59882,1.52403 0.34714,3.84663 0.69455,7.69284 1.04225,11.53888 -0.55301,4.3145 -1.10576,8.62856 -1.65822,12.94245 0.027,2.82958 0.0542,5.65879 0.0817,8.48779 -1.14049,-0.5495 -2.28066,-1.09925 -3.42059,-1.64926 -0.33707,-4.69204 -0.67388,-9.38416 -1.01043,-14.07663 -0.32545,-3.84323 -0.65062,-7.68657 -0.97555,-11.53025 -0.18592,-2.99493 -0.37159,-5.99001 -0.55701,-8.9854 -1.65559,-0.41698 -3.31086,-0.83421 -4.96594,-1.25171 -0.93544,1.23743 -1.87059,2.47456 -2.80549,3.71145 0.10993,1.95622 0.22012,3.91209 0.33058,5.86774 0.33032,4.02236 0.6609,8.0443 0.99174,12.06606 0.13747,4.57298 0.27521,9.14551 0.41322,13.71788 -0.54,0.49223 -1.07972,0.98417 -1.61917,1.47586 -1.94612,-5.96882 -3.89191,-11.93765 -5.83745,-17.90687 -0.0435,-3.68528 -0.0867,-7.37066 -0.12967,-11.05639 -1.09597,-1.23382 -2.19168,-2.46785 -3.28713,-3.70216 -1.45492,1.39581 -2.90953,2.7913 -4.3639,4.18656 -0.0554,3.05104 -0.11045,6.10169 -0.1653,9.15215 0.38669,3.14929 0.77361,6.29819 1.16082,9.44689 1.08474,5.20719 2.1697,10.41392 3.25494,15.62049 0.44363,2.97238 0.88747,5.94439 1.33159,8.91619 -0.91224,3.44163 -1.82418,6.88287 -2.73587,10.32392 -2.55398,-3.0248 -5.1076,-6.04974 -7.66098,-9.075 -1.97469,-1.66378 -3.94902,-3.32775 -5.92314,-4.99202 -2.88067,-0.55141 -5.76094,-1.10305 -8.641,-1.65497 -0.40838,0.96748 -0.8165,1.93466 -1.22435,2.9016 1.80371,2.04082 3.60761,4.08128 5.41182,6.12153 1.76096,2.44928 3.52215,4.89819 5.2836,7.3469 4.58983,5.01859 9.17975,10.03673 13.77,15.0547 1.65288,2.36763 3.30595,4.7349 4.95931,7.10194"
       sodipodi:nodetypes="ccccccccccccccccccccccccccccccccccccccccccccccc" />
    <path
       style="fill:#93a8ac;fill-opacity:1;stroke:none;stroke-width:1;stroke-dasharray:none;stroke-opacity:1"
       d="m 184.09514,335.07895 c -0.75402,0.91902 -0.79545,2.442 -0.60242,4.83909 0.19303,2.39709 0.62033,5.66797 1.60815,7.24814 0.98781,1.58016 2.53528,1.47072 3.49844,0.51247 0.96315,-0.95824 1.34301,-2.76604 1.10948,-5.26507 -0.23354,-2.49903 -1.08092,-5.6895 -2.23736,-7.12853 -1.15643,-1.43904 -2.62226,-1.12513 -3.37629,-0.2061 z"
       id="path12691"
       inkscape:path-effect="#path-effect12695"
       inkscape:original-d="m 183.38257,334.474 c -0.0404,1.524 -0.0819,3.04698 -0.12428,4.56902 0.42831,3.272 0.85562,6.54288 1.28193,9.81283 1.54854,-0.10844 3.09601,-0.21789 4.64251,-0.32833 0.38088,-1.80687 0.76075,-3.61467 1.13963,-5.4235 -0.84643,-3.18965 -1.69381,-6.38012 -2.54223,-9.57177 -1.46488,0.31493 -2.93071,0.62883 -4.39756,0.94175 z"
       sodipodi:nodetypes="ccccccc" />
    <path
       style="fill:#ffac85;fill-opacity:0.8;stroke:none;stroke-width:1;stroke-dasharray:none;stroke-opacity:1"
       d="m 186.38695,300.75268 c -1.08269,1.37592 -2.6742,3.80043 -3.06659,6.6596 -0.39239,2.85916 0.41387,6.15192 1.5911,7.74299 1.17722,1.59107 2.72469,1.48163 3.68785,0.52338 0.96315,-0.95824 1.34301,-2.76604 1.24872,-5.7333 -0.0943,-2.96725 -0.66304,-7.09413 -1.23403,-8.99481 -0.571,-1.90068 -1.14437,-1.57378 -2.22705,-0.19786 z"
       id="path12681"
       inkscape:path-effect="#path-effect12683"
       inkscape:original-d="m 186.89593,299.70385 c -1.59051,2.42551 -3.18203,4.85002 -4.77454,7.27354 0.80729,3.29388 1.61355,6.58664 2.41883,9.87846 1.54854,-0.10844 3.09601,-0.21789 4.64251,-0.32833 0.38088,-1.80687 0.76075,-3.61467 1.13963,-5.4235 -0.56778,-4.12604 -1.13653,-8.25292 -1.70629,-12.38088 -0.57239,0.32791 -1.14576,0.65481 -1.72014,0.98071 z" />
    <path
       style="fill:none;fill-opacity:1;stroke:#000000;stroke-width:0.5;stroke-dasharray:none;stroke-opacity:1"
       d="m 200.51148,281.06994 42.40526,0.016"
       id="path57602"
       sodipodi:nodetypes="cc" />
    <ellipse
       style="fill:#f5e960;fill-opacity:1;stroke:#000000;stroke-width:1;stroke-dasharray:none;stroke-opacity:1"
       id="path61960"
       cx="218.39604"
       cy="281.22549"
       rx="2.4550357"
       ry="2.2081432" />
    <path
       style="fill:#f5e960;fill-opacity:1;stroke:none;stroke-width:1;stroke-dasharray:none;stroke-opacity:1"
       d="m 186.07093,274.20463 c -0.70992,0.95822 -0.89636,2.64551 -1.13932,5.39717 -0.24296,2.75167 -0.54244,6.56739 0.0867,8.65824 0.62918,2.09086 2.18568,2.45723 3.22381,1.31076 1.03813,-1.14648 1.55908,-3.80622 1.64015,-6.85493 0.0811,-3.04872 -0.278,-6.48648 -1.07348,-8.09202 -0.79547,-1.60555 -2.02798,-1.37744 -2.73791,-0.41922 z"
       id="path12685"
       inkscape:path-effect="#path-effect12689"
       inkscape:original-d="m 185.54755,273.47466 c -0.18544,1.68831 -0.37188,3.3756 -0.55933,5.06195 -0.29849,3.81694 -0.59797,7.63266 -0.89847,11.44762 1.55762,0.3674 3.11412,0.73376 4.66973,1.09916 0.52197,-2.65884 1.04292,-5.31858 1.56288,-7.97937 -0.35809,-3.43696 -0.71715,-6.87472 -1.07724,-10.31368 -1.23154,0.22911 -2.46405,0.45722 -3.69757,0.68432 z"
       sodipodi:nodetypes="ccccccc" />
    <path
       style="fill:none;fill-opacity:1;stroke:#000000;stroke-width:0.5;stroke-dasharray:none;stroke-opacity:1"
       d="m 187.16008,274.95227 c 0,0 7.73513,2.2609 10.48423,3.76802 1.14628,0.62842 3.17311,2.30461 3.17311,2.30461"
       id="path72852"
       sodipodi:nodetypes="csc" />
    <path
       style="fill:none;fill-opacity:1;stroke:#000000;stroke-width:0.5;stroke-dasharray:none;stroke-opacity:1"
       d="m 191.6999,276.35304 -5.28506,3.36436"
       id="path72854"
       sodipodi:nodetypes="cc" />
    <path
       style="fill:none;fill-opacity:1;stroke:#000000;stroke-width:0.5;stroke-dasharray:none;stroke-opacity:1"
       d="m 201.46479,281.04707 c -4.79837,1.86746 -5.59441,3.86711 -8.80332,4.80442 -2.4235,0.7079 -7.55639,0.52075 -7.55639,0.52075"
       id="path72856"
       sodipodi:nodetypes="csc" />
    <path
       style="fill:none;fill-opacity:1;stroke:#000000;stroke-width:0.5;stroke-dasharray:none;stroke-opacity:1"
       d="m 190.75728,286.17399 -5.04991,2.5819"
       id="path72858" />
    <path
       style="fill:none;fill-opacity:1;stroke:#000000;stroke-width:0.5;stroke-dasharray:none;stroke-opacity:1"
       d="m 185.70057,282.75267 c 0,0 7.68259,-1.62567 8.9385,-1.96141 1.17237,-0.31342 6.03534,0.043 6.03534,0.043"
       id="path74312"
       sodipodi:nodetypes="csc" />
    <path
       sodipodi:type="star"
       style="fill:#000000;fill-opacity:1;stroke:#000000;stroke-width:0.5;stroke-dasharray:none;stroke-opacity:1"
       id="path78722"
       inkscape:flatsided="false"
       sodipodi:sides="3"
       sodipodi:cx="660.27081"
       sodipodi:cy="85.253578"
       sodipodi:r1="2.0833602"
       sodipodi:r2="1.0416801"
       sodipodi:arg1="0.46915863"
       sodipodi:arg2="1.5163562"
       inkscape:rounded="0"
       inkscape:randomized="0"
       d="m 662.12906,86.19554 -1.80157,0.09818 -1.80157,0.09817 0.81577,-1.609293 0.81576,-1.609293 0.98581,1.511118 z"
       transform="rotate(33.064223,121.3206,-521.2298)"
       inkscape:transform-center-x="0.96338304"
       inkscape:transform-center-y="0.39406984" />
    <path
       style="fill:none;fill-opacity:1;stroke:#000000;stroke-width:0.5;stroke-dasharray:none;stroke-opacity:1"
       d="m 187.01707,302.76159 c 0,0 3.75486,-0.94938 6.50396,0.55774 1.14628,0.62842 7.15338,5.51489 7.15338,5.51489"
       id="path80074"
       sodipodi:nodetypes="csc" />
    <path
       style="fill:none;fill-opacity:1;stroke:#000000;stroke-width:0.5;stroke-dasharray:none;stroke-opacity:1"
       d="m 191.22679,307.98117 c -1.03523,1.13961 -1.07678,2.89153 -5.52632,4.60833"
       id="path80076"
       sodipodi:nodetypes="cc" />
    <path
       style="fill:none;fill-opacity:1;stroke:#000000;stroke-width:0.5;stroke-dasharray:none;stroke-opacity:1"
       d="m 201.46479,308.9994 c -4.01081,4.84482 -4.83867,3.90645 -8.04758,4.84376 -2.4235,0.7079 -8.31213,0.48141 -8.31213,0.48141"
       id="path80078"
       sodipodi:nodetypes="csc" />
    <path
       style="fill:none;fill-opacity:1;stroke:#000000;stroke-width:0.5;stroke-dasharray:none;stroke-opacity:1"
       d="m 201.65802,308.92185 c -0.23705,0.03 -10.72636,-2.40118 -15.62429,0.30579"
       id="path80080"
       sodipodi:nodetypes="cc" />
    <path
       style="fill:none;fill-opacity:1;stroke:#000000;stroke-width:0.5;stroke-dasharray:none;stroke-opacity:1"
       d="m 186.47268,305.75083 c 0,0 4.26423,0.51913 5.52014,0.18339 1.17237,-0.31342 4.04017,-0.61621 4.04017,-0.61621"
       id="path80082"
       sodipodi:nodetypes="csc" />
    <path
       style="fill:none;fill-opacity:1;stroke:#000000;stroke-width:0.5;stroke-dasharray:none;stroke-opacity:1"
       d="m 201.51144,309.00077 28.28622,-0.004"
       id="path80070"
       sodipodi:nodetypes="cc" />
    <ellipse
       style="fill:#ffac85;fill-opacity:1;stroke:#000000;stroke-width:0.95337;stroke-dasharray:none;stroke-opacity:1"
       id="ellipse80072"
       cx="218.56209"
       cy="309.22549"
       rx="2.3405578"
       ry="2.1051779" />
    <path
       style="fill:none;fill-opacity:1;stroke:#000000;stroke-width:0.5;stroke-dasharray:none;stroke-opacity:1"
       d="m 200.51148,341.06994 42.40526,0.016"
       id="path80088"
       sodipodi:nodetypes="cc" />
    <ellipse
       style="fill:#93a8ac;fill-opacity:1;stroke:#000000;stroke-width:1;stroke-dasharray:none;stroke-opacity:1"
       id="ellipse80090"
       cx="218.39604"
       cy="341.22549"
       rx="2.4550357"
       ry="2.2081432" />
    <g
       id="g80115"
       transform="matrix(1,0,0,-1,0,622.07215)">
      <path
         style="fill:none;fill-opacity:1;stroke:#000000;stroke-width:0.5;stroke-dasharray:none;stroke-opacity:1"
         d="m 187.01707,274.76159 c 0,0 7.73513,2.2609 10.48423,3.76802 1.14628,0.62842 3.17311,2.30461 3.17311,2.30461"
         id="path80092"
         sodipodi:nodetypes="csc" />
      <path
         style="fill:none;fill-opacity:1;stroke:#000000;stroke-width:0.5;stroke-dasharray:none;stroke-opacity:1"
         d="m 197.15006,278.39499 -10.11545,-0.53858"
         id="path80094"
         sodipodi:nodetypes="cc" />
      <path
         style="fill:none;fill-opacity:1;stroke:#000000;stroke-width:0.5;stroke-dasharray:none;stroke-opacity:1"
         d="m 201.46479,280.9994 c -4.79837,1.86746 -5.59441,3.86711 -8.80332,4.80442 -2.4235,0.7079 -7.55639,0.52075 -7.55639,0.52075"
         id="path80096"
         sodipodi:nodetypes="csc" />
      <path
         style="fill:none;fill-opacity:1;stroke:#000000;stroke-width:0.5;stroke-dasharray:none;stroke-opacity:1"
         d="m 192.23194,281.03681 c -1.43912,0.17157 0.20362,3.22823 -6.48686,3.43503"
         id="path80098"
         sodipodi:nodetypes="cc" />
      <path
         style="fill:none;fill-opacity:1;stroke:#000000;stroke-width:0.5;stroke-dasharray:none;stroke-opacity:1"
         d="m 186.13959,281.56508 c 0,0 7.24357,-0.43808 8.49948,-0.77382 1.17237,-0.31342 6.03534,0.043 6.03534,0.043"
         id="path80100"
         sodipodi:nodetypes="csc" />
    </g>
    <path
       sodipodi:type="star"
       style="fill:#000000;fill-opacity:1;stroke:#000000;stroke-width:0.5;stroke-dasharray:none;stroke-opacity:1"
       id="path80102"
       inkscape:flatsided="false"
       sodipodi:sides="3"
       sodipodi:cx="660.27081"
       sodipodi:cy="85.253578"
       sodipodi:r1="2.0833602"
       sodipodi:r2="1.0416801"
       sodipodi:arg1="0.46915863"
       sodipodi:arg2="1.5163562"
       inkscape:rounded="0"
       inkscape:randomized="0"
       d="m 662.12906,86.19554 -1.80157,0.09818 -1.80157,0.09817 0.81577,-1.609293 0.81576,-1.609293 0.98581,1.511118 z"
       transform="rotate(33.064223,20.250341,-491.2298)"
       inkscape:transform-center-x="0.96338304"
       inkscape:transform-center-y="0.39406984" />
    <g
       id="g80312">
      <path
         style="fill:none;fill-opacity:1;stroke:#000000;stroke-width:0.5;stroke-dasharray:none;stroke-opacity:1"
         d="m 257.51147,281.60176 40.42791,0.0152"
         id="path80195"
         sodipodi:nodetypes="cc" />
      <path
         sodipodi:type="star"
         style="fill:#000000;fill-opacity:1;stroke:#000000;stroke-width:0.5;stroke-dasharray:none;stroke-opacity:1"
         id="path80199"
         inkscape:flatsided="false"
         sodipodi:sides="3"
         sodipodi:cx="660.27081"
         sodipodi:cy="85.253578"
         sodipodi:r1="2.0833602"
         sodipodi:r2="1.0416801"
         sodipodi:arg1="0.46915863"
         sodipodi:arg2="1.5163562"
         inkscape:rounded="0"
         inkscape:randomized="0"
         d="m 662.12906,86.19554 -1.80157,0.09818 -1.80157,0.09817 0.81577,-1.609293 0.81576,-1.609293 0.98581,1.511118 z"
         transform="matrix(0.798981,0.52013853,-0.52013853,0.798981,-186.03131,-129.93772)"
         inkscape:transform-center-x="0.96338304"
         inkscape:transform-center-y="0.39406984" />
    </g>
    <path
       sodipodi:type="star"
       style="fill:#ffffff;fill-opacity:1;stroke:#000000;stroke-width:0.772376;stroke-dasharray:none;stroke-opacity:1"
       id="path80106"
       inkscape:flatsided="false"
       sodipodi:sides="6"
       sodipodi:cx="684.30322"
       sodipodi:cy="86.135773"
       sodipodi:r1="7.3553419"
       sodipodi:r2="11.863455"
       sodipodi:arg1="0.48091307"
       sodipodi:arg2="1.0045118"
       inkscape:rounded="0"
       inkscape:randomized="-0.084"
       d="m 691.10126,89.577059 -0.50721,7.15427 -5.946,-3.720714 -6.05874,2.815067 -1.22715,-5.193787 -4.34833,-4.716291 4.41941,-3.995192 0.50721,-5.16121 6.60406,2.157506 5.40068,-3.24492 1.22917,7.138344 4.45577,3.643153 z"
       transform="matrix(0.64735275,0,0,0.64735275,-191.04523,225.80265)"
       inkscape:transform-center-x="-0.16385828"
       inkscape:transform-center-y="-1.776308" />
    <g
       id="g80308"
       transform="translate(0,0.347394)"
       style="stroke:#000000;stroke-opacity:1">
      <path
         style="fill:none;fill-opacity:1;stroke:#000000;stroke-width:0.5;stroke-dasharray:none;stroke-opacity:1"
         d="m 257.51147,301.07719 40.42791,0.0153"
         id="path80187"
         sodipodi:nodetypes="cc" />
      <path
         sodipodi:type="star"
         style="fill:#000000;fill-opacity:1;stroke:#000000;stroke-width:0.5;stroke-dasharray:none;stroke-opacity:1"
         id="path80191"
         inkscape:flatsided="false"
         sodipodi:sides="3"
         sodipodi:cx="660.27081"
         sodipodi:cy="85.253578"
         sodipodi:r1="2.0833602"
         sodipodi:r2="1.0416801"
         sodipodi:arg1="0.46915863"
         sodipodi:arg2="1.5163562"
         inkscape:rounded="0"
         inkscape:randomized="0"
         d="m 662.12906,86.19554 -1.80157,0.09818 -1.80157,0.09817 0.81577,-1.609293 0.81576,-1.609293 0.98581,1.511118 z"
         transform="matrix(0.798981,0.52013853,-0.52013853,0.798981,-186.03131,-110.46226)"
         inkscape:transform-center-x="0.96338304"
         inkscape:transform-center-y="0.39406984" />
    </g>
    <path
       sodipodi:type="star"
       style="fill:#ffffff;fill-opacity:1;stroke:#000000;stroke-width:0.772376;stroke-dasharray:none;stroke-opacity:1"
       id="path80283"
       inkscape:flatsided="false"
       sodipodi:sides="6"
       sodipodi:cx="684.30322"
       sodipodi:cy="86.135773"
       sodipodi:r1="7.3553419"
       sodipodi:r2="11.863455"
       sodipodi:arg1="0.48091307"
       sodipodi:arg2="1.0045118"
       inkscape:rounded="0"
       inkscape:randomized="-0.084"
       d="m 691.10126,89.577059 -0.50721,7.15427 -5.946,-3.720714 -6.05874,2.815067 -1.22715,-5.193787 -4.34833,-4.716291 4.41941,-3.995192 0.50721,-5.16121 6.60406,2.157506 5.40068,-3.24492 1.22917,7.138344 4.45577,3.643153 z"
       transform="matrix(0.64735275,0,0,0.64735275,-191.04523,245.62552)"
       inkscape:transform-center-x="-0.16385828"
       inkscape:transform-center-y="-1.776308" />
    <g
       id="g80304"
       transform="translate(0,-1.829732)">
      <path
         style="fill:none;fill-opacity:1;stroke:#000000;stroke-width:0.5;stroke-dasharray:none;stroke-opacity:1"
         d="m 257.51147,323.07719 40.42791,0.0153"
         id="path80271"
         sodipodi:nodetypes="cc" />
      <path
         sodipodi:type="star"
         style="fill:#000000;fill-opacity:1;stroke:#000000;stroke-width:0.5;stroke-dasharray:none;stroke-opacity:1"
         id="path80273"
         inkscape:flatsided="false"
         sodipodi:sides="3"
         sodipodi:cx="660.27081"
         sodipodi:cy="85.253578"
         sodipodi:r1="2.0833602"
         sodipodi:r2="1.0416801"
         sodipodi:arg1="0.46915863"
         sodipodi:arg2="1.5163562"
         inkscape:rounded="0"
         inkscape:randomized="0"
         d="m 662.12906,86.19554 -1.80157,0.09818 -1.80157,0.09817 0.81577,-1.609293 0.81576,-1.609293 0.98581,1.511118 z"
         transform="matrix(0.798981,0.52013853,-0.52013853,0.798981,-186.03131,-88.46228)"
         inkscape:transform-center-x="0.96338304"
         inkscape:transform-center-y="0.39406984" />
    </g>
    <path
       sodipodi:type="star"
       style="fill:#ffffff;fill-opacity:1;stroke:#000000;stroke-width:0.772376;stroke-dasharray:none;stroke-opacity:1"
       id="path80285"
       inkscape:flatsided="false"
       sodipodi:sides="6"
       sodipodi:cx="684.30322"
       sodipodi:cy="86.135773"
       sodipodi:r1="7.3553419"
       sodipodi:r2="11.863455"
       sodipodi:arg1="0.48091307"
       sodipodi:arg2="1.0045118"
       inkscape:rounded="0"
       inkscape:randomized="-0.084"
       d="m 691.10126,89.577059 -0.50721,7.15427 -5.946,-3.720714 -6.05874,2.815067 -1.22715,-5.193787 -4.34833,-4.716291 4.41941,-3.995192 0.50721,-5.16121 6.60406,2.157506 5.40068,-3.24492 1.22917,7.138344 4.45577,3.643153 z"
       transform="matrix(0.64735275,0,0,0.64735275,-191.04523,265.44837)"
       inkscape:transform-center-x="-0.16385828"
       inkscape:transform-center-y="-1.776308" />
    <g
       id="g80300">
      <path
         style="fill:none;fill-opacity:1;stroke:#000000;stroke-width:0.5;stroke-dasharray:none;stroke-opacity:1"
         d="m 257.51147,341.07029 40.42791,0.0153"
         id="path80203"
         sodipodi:nodetypes="cc" />
      <path
         sodipodi:type="star"
         style="fill:#000000;fill-opacity:1;stroke:#000000;stroke-width:0.5;stroke-dasharray:none;stroke-opacity:1"
         id="path80207"
         inkscape:flatsided="false"
         sodipodi:sides="3"
         sodipodi:cx="660.27081"
         sodipodi:cy="85.253578"
         sodipodi:r1="2.0833602"
         sodipodi:r2="1.0416801"
         sodipodi:arg1="0.46915863"
         sodipodi:arg2="1.5163562"
         inkscape:rounded="0"
         inkscape:randomized="0"
         d="m 662.12906,86.19554 -1.80157,0.09818 -1.80157,0.09817 0.81577,-1.609293 0.81576,-1.609293 0.98581,1.511118 z"
         transform="matrix(0.798981,0.52013853,-0.52013853,0.798981,-186.03131,-70.469158)"
         inkscape:transform-center-x="0.96338304"
         inkscape:transform-center-y="0.39406984" />
    </g>
    <path
       sodipodi:type="star"
       style="fill:#ffffff;fill-opacity:1;stroke:#000000;stroke-width:0.772376;stroke-dasharray:none;stroke-opacity:1"
       id="path80287"
       inkscape:flatsided="false"
       sodipodi:sides="6"
       sodipodi:cx="684.30322"
       sodipodi:cy="86.135773"
       sodipodi:r1="7.3553419"
       sodipodi:r2="11.863455"
       sodipodi:arg1="0.48091307"
       sodipodi:arg2="1.0045118"
       inkscape:rounded="0"
       inkscape:randomized="-0.084"
       d="m 691.10126,89.577059 -0.50721,7.15427 -5.946,-3.720714 -6.05874,2.815067 -1.22715,-5.193787 -4.34833,-4.716291 4.41941,-3.995192 0.50721,-5.16121 6.60406,2.157506 5.40068,-3.24492 1.22917,7.138344 4.45577,3.643153 z"
       transform="matrix(0.64735275,0,0,0.64735275,-191.04523,285.27123)"
       inkscape:transform-center-x="-0.16385828"
       inkscape:transform-center-y="-1.776308" />
    <g
       id="g80344"
       transform="translate(54.04687)">
      <path
         style="fill:none;fill-opacity:1;stroke:#000000;stroke-width:0.5;stroke-dasharray:none;stroke-opacity:1"
         d="m 257.51147,281.60176 40.42791,0.0152"
         id="path80340"
         sodipodi:nodetypes="cc" />
      <path
         sodipodi:type="star"
         style="fill:#000000;fill-opacity:1;stroke:#000000;stroke-width:0.5;stroke-dasharray:none;stroke-opacity:1"
         id="path80342"
         inkscape:flatsided="false"
         sodipodi:sides="3"
         sodipodi:cx="660.27081"
         sodipodi:cy="85.253578"
         sodipodi:r1="2.0833602"
         sodipodi:r2="1.0416801"
         sodipodi:arg1="0.46915863"
         sodipodi:arg2="1.5163562"
         inkscape:rounded="0"
         inkscape:randomized="0"
         d="m 662.12906,86.19554 -1.80157,0.09818 -1.80157,0.09817 0.81577,-1.609293 0.81576,-1.609293 0.98581,1.511118 z"
         transform="matrix(0.798981,0.52013853,-0.52013853,0.798981,-186.03131,-129.93772)"
         inkscape:transform-center-x="0.96338304"
         inkscape:transform-center-y="0.39406984" />
    </g>
    <path
       sodipodi:type="star"
       style="fill:#ffffff;fill-opacity:1;stroke:#000000;stroke-width:0.772376;stroke-dasharray:none;stroke-opacity:1"
       id="path80338"
       inkscape:flatsided="false"
       sodipodi:sides="6"
       sodipodi:cx="684.30322"
       sodipodi:cy="86.135773"
       sodipodi:r1="7.3553419"
       sodipodi:r2="11.863455"
       sodipodi:arg1="0.48091307"
       sodipodi:arg2="1.0045118"
       inkscape:rounded="0"
       inkscape:randomized="-0.084"
       d="m 691.10126,89.577059 -0.50721,7.15427 -5.946,-3.720714 -6.05874,2.815067 -1.22715,-5.193787 -4.34833,-4.716291 4.41941,-3.995192 0.50721,-5.16121 6.60406,2.157506 5.40068,-3.24492 1.22917,7.138344 4.45577,3.643153 z"
       transform="matrix(0.64735275,0,0,0.64735275,-136.99836,225.80265)"
       inkscape:transform-center-x="-0.16385828"
       inkscape:transform-center-y="-1.776308" />
    <g
       id="g80352"
       transform="translate(54.04687,0.347394)">
      <path
         style="fill:none;fill-opacity:1;stroke:#000000;stroke-width:0.5;stroke-dasharray:none;stroke-opacity:1"
         d="m 257.51147,301.07719 40.42791,0.0153"
         id="path80348"
         sodipodi:nodetypes="cc" />
      <path
         sodipodi:type="star"
         style="fill:#000000;fill-opacity:1;stroke:#000000;stroke-width:0.5;stroke-dasharray:none;stroke-opacity:1"
         id="path80350"
         inkscape:flatsided="false"
         sodipodi:sides="3"
         sodipodi:cx="660.27081"
         sodipodi:cy="85.253578"
         sodipodi:r1="2.0833602"
         sodipodi:r2="1.0416801"
         sodipodi:arg1="0.46915863"
         sodipodi:arg2="1.5163562"
         inkscape:rounded="0"
         inkscape:randomized="0"
         d="m 662.12906,86.19554 -1.80157,0.09818 -1.80157,0.09817 0.81577,-1.609293 0.81576,-1.609293 0.98581,1.511118 z"
         transform="matrix(0.798981,0.52013853,-0.52013853,0.798981,-186.03131,-110.46226)"
         inkscape:transform-center-x="0.96338304"
         inkscape:transform-center-y="0.39406984" />
    </g>
    <path
       sodipodi:type="star"
       style="fill:#ffffff;fill-opacity:1;stroke:#000000;stroke-width:0.772376;stroke-dasharray:none;stroke-opacity:1"
       id="path80354"
       inkscape:flatsided="false"
       sodipodi:sides="6"
       sodipodi:cx="684.30322"
       sodipodi:cy="86.135773"
       sodipodi:r1="7.3553419"
       sodipodi:r2="11.863455"
       sodipodi:arg1="0.48091307"
       sodipodi:arg2="1.0045118"
       inkscape:rounded="0"
       inkscape:randomized="-0.084"
       d="m 691.10126,89.577059 -0.50721,7.15427 -5.946,-3.720714 -6.05874,2.815067 -1.22715,-5.193787 -4.34833,-4.716291 4.41941,-3.995192 0.50721,-5.16121 6.60406,2.157506 5.40068,-3.24492 1.22917,7.138344 4.45577,3.643153 z"
       transform="matrix(0.64735275,0,0,0.64735275,-136.99836,245.62552)"
       inkscape:transform-center-x="-0.16385828"
       inkscape:transform-center-y="-1.776308" />
    <g
       id="g80362"
       transform="translate(54.04687,-1.829732)">
      <path
         style="fill:none;fill-opacity:1;stroke:#000000;stroke-width:0.5;stroke-dasharray:none;stroke-opacity:1"
         d="m 257.51147,323.07719 40.42791,0.0153"
         id="path80358"
         sodipodi:nodetypes="cc" />
      <path
         sodipodi:type="star"
         style="fill:#000000;fill-opacity:1;stroke:#000000;stroke-width:0.5;stroke-dasharray:none;stroke-opacity:1"
         id="path80360"
         inkscape:flatsided="false"
         sodipodi:sides="3"
         sodipodi:cx="660.27081"
         sodipodi:cy="85.253578"
         sodipodi:r1="2.0833602"
         sodipodi:r2="1.0416801"
         sodipodi:arg1="0.46915863"
         sodipodi:arg2="1.5163562"
         inkscape:rounded="0"
         inkscape:randomized="0"
         d="m 662.12906,86.19554 -1.80157,0.09818 -1.80157,0.09817 0.81577,-1.609293 0.81576,-1.609293 0.98581,1.511118 z"
         transform="matrix(0.798981,0.52013853,-0.52013853,0.798981,-186.03131,-88.46228)"
         inkscape:transform-center-x="0.96338304"
         inkscape:transform-center-y="0.39406984" />
    </g>
    <path
       sodipodi:type="star"
       style="fill:#ffffff;fill-opacity:1;stroke:#000000;stroke-width:0.772376;stroke-dasharray:none;stroke-opacity:1"
       id="path80364"
       inkscape:flatsided="false"
       sodipodi:sides="6"
       sodipodi:cx="684.30322"
       sodipodi:cy="86.135773"
       sodipodi:r1="7.3553419"
       sodipodi:r2="11.863455"
       sodipodi:arg1="0.48091307"
       sodipodi:arg2="1.0045118"
       inkscape:rounded="0"
       inkscape:randomized="-0.084"
       d="m 691.10126,89.577059 -0.50721,7.15427 -5.946,-3.720714 -6.05874,2.815067 -1.22715,-5.193787 -4.34833,-4.716291 4.41941,-3.995192 0.50721,-5.16121 6.60406,2.157506 5.40068,-3.24492 1.22917,7.138344 4.45577,3.643153 z"
       transform="matrix(0.64735275,0,0,0.64735275,-136.99836,265.44837)"
       inkscape:transform-center-x="-0.16385828"
       inkscape:transform-center-y="-1.776308" />
    <g
       id="g80372"
       transform="translate(54.04687)">
      <path
         style="fill:none;fill-opacity:1;stroke:#000000;stroke-width:0.5;stroke-dasharray:none;stroke-opacity:1"
         d="m 257.51147,341.07029 40.42791,0.0153"
         id="path80368"
         sodipodi:nodetypes="cc" />
      <path
         sodipodi:type="star"
         style="fill:#000000;fill-opacity:1;stroke:#000000;stroke-width:0.5;stroke-dasharray:none;stroke-opacity:1"
         id="path80370"
         inkscape:flatsided="false"
         sodipodi:sides="3"
         sodipodi:cx="660.27081"
         sodipodi:cy="85.253578"
         sodipodi:r1="2.0833602"
         sodipodi:r2="1.0416801"
         sodipodi:arg1="0.46915863"
         sodipodi:arg2="1.5163562"
         inkscape:rounded="0"
         inkscape:randomized="0"
         d="m 662.12906,86.19554 -1.80157,0.09818 -1.80157,0.09817 0.81577,-1.609293 0.81576,-1.609293 0.98581,1.511118 z"
         transform="matrix(0.798981,0.52013853,-0.52013853,0.798981,-186.03131,-70.469158)"
         inkscape:transform-center-x="0.96338304"
         inkscape:transform-center-y="0.39406984" />
    </g>
    <path
       sodipodi:type="star"
       style="fill:#ffffff;fill-opacity:1;stroke:#000000;stroke-width:0.772376;stroke-dasharray:none;stroke-opacity:1"
       id="path80374"
       inkscape:flatsided="false"
       sodipodi:sides="6"
       sodipodi:cx="684.30322"
       sodipodi:cy="86.135773"
       sodipodi:r1="7.3553419"
       sodipodi:r2="11.863455"
       sodipodi:arg1="0.48091307"
       sodipodi:arg2="1.0045118"
       inkscape:rounded="0"
       inkscape:randomized="-0.084"
       d="m 691.10126,89.577059 -0.50721,7.15427 -5.946,-3.720714 -6.05874,2.815067 -1.22715,-5.193787 -4.34833,-4.716291 4.41941,-3.995192 0.50721,-5.16121 6.60406,2.157506 5.40068,-3.24492 1.22917,7.138344 4.45577,3.643153 z"
       transform="matrix(0.64735275,0,0,0.64735275,-136.99836,285.27123)"
       inkscape:transform-center-x="-0.16385828"
       inkscape:transform-center-y="-1.776308" />
    <path
       sodipodi:type="star"
       style="fill:#000000;fill-opacity:1;stroke:#000000;stroke-width:0.5;stroke-dasharray:none;stroke-opacity:1"
       id="path81152"
       inkscape:flatsided="false"
       sodipodi:sides="3"
       sodipodi:cx="660.27081"
       sodipodi:cy="85.253578"
       sodipodi:r1="2.0833602"
       sodipodi:r2="1.0416801"
       sodipodi:arg1="0.46915863"
       sodipodi:arg2="1.5163562"
       inkscape:rounded="0"
       inkscape:randomized="0"
       d="m 662.12906,86.19554 -1.80157,0.09818 -1.80157,0.09817 0.81577,-1.609293 0.81576,-1.609293 0.98581,1.511118 z"
       transform="rotate(33.064223,53.61218,-501.50306)"
       inkscape:transform-center-x="0.96338304"
       inkscape:transform-center-y="0.39406984" />
    <path
       style="fill:none;fill-opacity:1;stroke:#000000;stroke-width:0.5;stroke-dasharray:none;stroke-opacity:1"
       d="m 229.65097,309.01777 c 5.89689,9.18922 2.0514,13.46434 9.97589,12.23051"
       id="path81154"
       sodipodi:nodetypes="cc" />
    <g
       id="g1415">
      <path
         style="fill:none;fill-opacity:1;stroke:#000000;stroke-width:0.5;stroke-dasharray:none;stroke-opacity:1"
         d="m 229.65097,309.01777 c 4.36852,-3.58434 3.11386,-5.32272 15.24109,-4.12055"
         id="path80392"
         sodipodi:nodetypes="cc" />
      <path
         sodipodi:type="star"
         style="fill:#000000;fill-opacity:1;stroke:#000000;stroke-width:0.5;stroke-dasharray:none;stroke-opacity:1"
         id="path81156"
         inkscape:flatsided="false"
         sodipodi:sides="3"
         sodipodi:cx="660.27081"
         sodipodi:cy="85.253578"
         sodipodi:r1="2.0833602"
         sodipodi:r2="1.0416801"
         sodipodi:arg1="0.46915863"
         sodipodi:arg2="1.5163562"
         inkscape:rounded="0"
         inkscape:randomized="0"
         d="m 662.12906,86.19554 -1.80157,0.09818 -1.80157,0.09817 0.81577,-1.609293 0.81576,-1.609293 0.98581,1.511118 z"
         transform="rotate(33.064223,82.56771,-506.30755)"
         inkscape:transform-center-x="0.96338304"
         inkscape:transform-center-y="0.39406984" />
    </g>
    <g
       id="g1411"
       transform="translate(-0.95340173)">
      <path
         sodipodi:type="star"
         style="fill:#000000;fill-opacity:1;stroke:#000000;stroke-width:0.5;stroke-dasharray:none;stroke-opacity:1"
         id="path80424"
         inkscape:flatsided="false"
         sodipodi:sides="3"
         sodipodi:cx="660.27081"
         sodipodi:cy="85.253578"
         sodipodi:r1="2.0833602"
         sodipodi:r2="1.0416801"
         sodipodi:arg1="0.46915863"
         sodipodi:arg2="1.5163562"
         inkscape:rounded="0"
         inkscape:randomized="0"
         d="m 662.12906,86.19554 -1.80157,0.09818 -1.80157,0.09817 0.81577,-1.609293 0.81576,-1.609293 0.98581,1.511118 z"
         transform="rotate(33.064223,97.34805,-507.77107)"
         inkscape:transform-center-x="0.96338304"
         inkscape:transform-center-y="0.39406984" />
      <path
         style="fill:none;fill-opacity:1;stroke:#000000;stroke-width:0.5;stroke-dasharray:none;stroke-opacity:1"
         d="m 233.65097,281.01777 c 5.89689,9.18922 4.19772,16.39801 12.12221,15.16418"
         id="path1311"
         sodipodi:nodetypes="cc" />
    </g>
  </g>
</svg>
